<mxfile host="Electron" modified="2023-11-05T09:35:26.019Z" agent="Mozilla/5.0 (Windows NT 10.0; Win64; x64) AppleWebKit/537.36 (KHTML, like Gecko) draw.io/22.0.3 Chrome/114.0.5735.289 Electron/25.8.4 Safari/537.36" etag="aHiOhY8QxLWhaF27-2H8" version="22.0.3" type="device">
  <diagram name="Page-1" id="CZy9cszEcuEEvyVYH7zF">
    <mxGraphModel dx="2508" dy="828" grid="1" gridSize="10" guides="1" tooltips="1" connect="1" arrows="1" fold="1" page="1" pageScale="1" pageWidth="850" pageHeight="1100" math="0" shadow="0">
      <root>
        <mxCell id="0" />
        <mxCell id="1" parent="0" />
        <mxCell id="jco1iWgY_Ft-8nNPsza7-37" value="BOOK" style="shape=table;startSize=30;container=1;collapsible=0;childLayout=tableLayout;" parent="1" vertex="1">
          <mxGeometry x="-250" y="401.65" width="960" height="68.20999999999991" as="geometry" />
        </mxCell>
        <mxCell id="jco1iWgY_Ft-8nNPsza7-38" value="" style="shape=tableRow;horizontal=0;startSize=0;swimlaneHead=0;swimlaneBody=0;strokeColor=inherit;top=0;left=0;bottom=0;right=0;collapsible=0;dropTarget=0;fillColor=none;points=[[0,0.5],[1,0.5]];portConstraint=eastwest;" parent="jco1iWgY_Ft-8nNPsza7-37" vertex="1">
          <mxGeometry y="30" width="960" height="38" as="geometry" />
        </mxCell>
        <mxCell id="jco1iWgY_Ft-8nNPsza7-39" value="&lt;u&gt;Book_ID&lt;/u&gt;" style="shape=partialRectangle;html=1;whiteSpace=wrap;connectable=0;strokeColor=inherit;overflow=hidden;fillColor=none;top=0;left=0;bottom=0;right=0;pointerEvents=1;" parent="jco1iWgY_Ft-8nNPsza7-38" vertex="1">
          <mxGeometry width="96" height="38" as="geometry">
            <mxRectangle width="96" height="38" as="alternateBounds" />
          </mxGeometry>
        </mxCell>
        <mxCell id="jco1iWgY_Ft-8nNPsza7-40" value="Name" style="shape=partialRectangle;html=1;whiteSpace=wrap;connectable=0;strokeColor=inherit;overflow=hidden;fillColor=none;top=0;left=0;bottom=0;right=0;pointerEvents=1;" parent="jco1iWgY_Ft-8nNPsza7-38" vertex="1">
          <mxGeometry x="96" width="96" height="38" as="geometry">
            <mxRectangle width="96" height="38" as="alternateBounds" />
          </mxGeometry>
        </mxCell>
        <mxCell id="jco1iWgY_Ft-8nNPsza7-41" value="O_Price" style="shape=partialRectangle;html=1;whiteSpace=wrap;connectable=0;strokeColor=inherit;overflow=hidden;fillColor=none;top=0;left=0;bottom=0;right=0;pointerEvents=1;" parent="jco1iWgY_Ft-8nNPsza7-38" vertex="1">
          <mxGeometry x="192" width="96" height="38" as="geometry">
            <mxRectangle width="96" height="38" as="alternateBounds" />
          </mxGeometry>
        </mxCell>
        <mxCell id="jco1iWgY_Ft-8nNPsza7-42" value="Discount" style="shape=partialRectangle;html=1;whiteSpace=wrap;connectable=0;strokeColor=inherit;overflow=hidden;fillColor=none;top=0;left=0;bottom=0;right=0;pointerEvents=1;" parent="jco1iWgY_Ft-8nNPsza7-38" vertex="1">
          <mxGeometry x="288" width="96" height="38" as="geometry">
            <mxRectangle width="96" height="38" as="alternateBounds" />
          </mxGeometry>
        </mxCell>
        <mxCell id="jco1iWgY_Ft-8nNPsza7-43" value="Price" style="shape=partialRectangle;html=1;whiteSpace=wrap;connectable=0;strokeColor=inherit;overflow=hidden;fillColor=none;top=0;left=0;bottom=0;right=0;pointerEvents=1;" parent="jco1iWgY_Ft-8nNPsza7-38" vertex="1">
          <mxGeometry x="384" width="96" height="38" as="geometry">
            <mxRectangle width="96" height="38" as="alternateBounds" />
          </mxGeometry>
        </mxCell>
        <mxCell id="jco1iWgY_Ft-8nNPsza7-44" value="Publish_year" style="shape=partialRectangle;html=1;whiteSpace=wrap;connectable=0;strokeColor=inherit;overflow=hidden;fillColor=none;top=0;left=0;bottom=0;right=0;pointerEvents=1;" parent="jco1iWgY_Ft-8nNPsza7-38" vertex="1">
          <mxGeometry x="480" width="96" height="38" as="geometry">
            <mxRectangle width="96" height="38" as="alternateBounds" />
          </mxGeometry>
        </mxCell>
        <mxCell id="jco1iWgY_Ft-8nNPsza7-45" value="Description" style="shape=partialRectangle;html=1;whiteSpace=wrap;connectable=0;strokeColor=inherit;overflow=hidden;fillColor=none;top=0;left=0;bottom=0;right=0;pointerEvents=1;" parent="jco1iWgY_Ft-8nNPsza7-38" vertex="1">
          <mxGeometry x="576" width="96" height="38" as="geometry">
            <mxRectangle width="96" height="38" as="alternateBounds" />
          </mxGeometry>
        </mxCell>
        <mxCell id="jco1iWgY_Ft-8nNPsza7-46" value="Ratings" style="shape=partialRectangle;html=1;whiteSpace=wrap;connectable=0;strokeColor=inherit;overflow=hidden;fillColor=none;top=0;left=0;bottom=0;right=0;pointerEvents=1;" parent="jco1iWgY_Ft-8nNPsza7-38" vertex="1">
          <mxGeometry x="672" width="96" height="38" as="geometry">
            <mxRectangle width="96" height="38" as="alternateBounds" />
          </mxGeometry>
        </mxCell>
        <mxCell id="jco1iWgY_Ft-8nNPsza7-47" value="Thumbnail" style="shape=partialRectangle;html=1;whiteSpace=wrap;connectable=0;strokeColor=inherit;overflow=hidden;fillColor=none;top=0;left=0;bottom=0;right=0;pointerEvents=1;" parent="jco1iWgY_Ft-8nNPsza7-38" vertex="1">
          <mxGeometry x="768" width="96" height="38" as="geometry">
            <mxRectangle width="96" height="38" as="alternateBounds" />
          </mxGeometry>
        </mxCell>
        <mxCell id="jco1iWgY_Ft-8nNPsza7-48" value="Deleted" style="shape=partialRectangle;html=1;whiteSpace=wrap;connectable=0;strokeColor=inherit;overflow=hidden;fillColor=none;top=0;left=0;bottom=0;right=0;pointerEvents=1;" parent="jco1iWgY_Ft-8nNPsza7-38" vertex="1">
          <mxGeometry x="864" width="96" height="38" as="geometry">
            <mxRectangle width="96" height="38" as="alternateBounds" />
          </mxGeometry>
        </mxCell>
        <mxCell id="jco1iWgY_Ft-8nNPsza7-61" value="Write" style="shape=table;startSize=30;container=1;collapsible=0;childLayout=tableLayout;" parent="1" vertex="1">
          <mxGeometry x="-250" y="260" width="192" height="68.20999999999991" as="geometry" />
        </mxCell>
        <mxCell id="jco1iWgY_Ft-8nNPsza7-62" value="" style="shape=tableRow;horizontal=0;startSize=0;swimlaneHead=0;swimlaneBody=0;strokeColor=inherit;top=0;left=0;bottom=0;right=0;collapsible=0;dropTarget=0;fillColor=none;points=[[0,0.5],[1,0.5]];portConstraint=eastwest;" parent="jco1iWgY_Ft-8nNPsza7-61" vertex="1">
          <mxGeometry y="30" width="192" height="38" as="geometry" />
        </mxCell>
        <mxCell id="jco1iWgY_Ft-8nNPsza7-73" value="&lt;u&gt;Author_ID&lt;/u&gt;" style="shape=partialRectangle;html=1;whiteSpace=wrap;connectable=0;strokeColor=inherit;overflow=hidden;fillColor=none;top=0;left=0;bottom=0;right=0;pointerEvents=1;" parent="jco1iWgY_Ft-8nNPsza7-62" vertex="1">
          <mxGeometry width="96" height="38" as="geometry">
            <mxRectangle width="96" height="38" as="alternateBounds" />
          </mxGeometry>
        </mxCell>
        <mxCell id="jco1iWgY_Ft-8nNPsza7-63" value="&lt;u&gt;Book_ID&lt;/u&gt;" style="shape=partialRectangle;html=1;whiteSpace=wrap;connectable=0;strokeColor=inherit;overflow=hidden;fillColor=none;top=0;left=0;bottom=0;right=0;pointerEvents=1;" parent="jco1iWgY_Ft-8nNPsza7-62" vertex="1">
          <mxGeometry x="96" width="96" height="38" as="geometry">
            <mxRectangle width="96" height="38" as="alternateBounds" />
          </mxGeometry>
        </mxCell>
        <mxCell id="jco1iWgY_Ft-8nNPsza7-74" value="Author" style="shape=table;startSize=30;container=1;collapsible=0;childLayout=tableLayout;" parent="1" vertex="1">
          <mxGeometry x="-250" y="130" width="192" height="68.20999999999991" as="geometry" />
        </mxCell>
        <mxCell id="jco1iWgY_Ft-8nNPsza7-75" value="" style="shape=tableRow;horizontal=0;startSize=0;swimlaneHead=0;swimlaneBody=0;strokeColor=inherit;top=0;left=0;bottom=0;right=0;collapsible=0;dropTarget=0;fillColor=none;points=[[0,0.5],[1,0.5]];portConstraint=eastwest;" parent="jco1iWgY_Ft-8nNPsza7-74" vertex="1">
          <mxGeometry y="30" width="192" height="38" as="geometry" />
        </mxCell>
        <mxCell id="jco1iWgY_Ft-8nNPsza7-76" value="&lt;u&gt;Author_ID&lt;/u&gt;" style="shape=partialRectangle;html=1;whiteSpace=wrap;connectable=0;strokeColor=inherit;overflow=hidden;fillColor=none;top=0;left=0;bottom=0;right=0;pointerEvents=1;" parent="jco1iWgY_Ft-8nNPsza7-75" vertex="1">
          <mxGeometry width="96" height="38" as="geometry">
            <mxRectangle width="96" height="38" as="alternateBounds" />
          </mxGeometry>
        </mxCell>
        <mxCell id="jco1iWgY_Ft-8nNPsza7-77" value="&lt;u&gt;Name&lt;/u&gt;" style="shape=partialRectangle;html=1;whiteSpace=wrap;connectable=0;strokeColor=inherit;overflow=hidden;fillColor=none;top=0;left=0;bottom=0;right=0;pointerEvents=1;" parent="jco1iWgY_Ft-8nNPsza7-75" vertex="1">
          <mxGeometry x="96" width="96" height="38" as="geometry">
            <mxRectangle width="96" height="38" as="alternateBounds" />
          </mxGeometry>
        </mxCell>
        <mxCell id="jco1iWgY_Ft-8nNPsza7-78" value="Publish" style="shape=table;startSize=30;container=1;collapsible=0;childLayout=tableLayout;" parent="1" vertex="1">
          <mxGeometry x="30" y="130" width="192" height="68.20999999999991" as="geometry" />
        </mxCell>
        <mxCell id="jco1iWgY_Ft-8nNPsza7-79" value="" style="shape=tableRow;horizontal=0;startSize=0;swimlaneHead=0;swimlaneBody=0;strokeColor=inherit;top=0;left=0;bottom=0;right=0;collapsible=0;dropTarget=0;fillColor=none;points=[[0,0.5],[1,0.5]];portConstraint=eastwest;" parent="jco1iWgY_Ft-8nNPsza7-78" vertex="1">
          <mxGeometry y="30" width="192" height="38" as="geometry" />
        </mxCell>
        <mxCell id="jco1iWgY_Ft-8nNPsza7-80" value="&lt;u&gt;Publisher_ID&lt;/u&gt;" style="shape=partialRectangle;html=1;whiteSpace=wrap;connectable=0;strokeColor=inherit;overflow=hidden;fillColor=none;top=0;left=0;bottom=0;right=0;pointerEvents=1;" parent="jco1iWgY_Ft-8nNPsza7-79" vertex="1">
          <mxGeometry width="96" height="38" as="geometry">
            <mxRectangle width="96" height="38" as="alternateBounds" />
          </mxGeometry>
        </mxCell>
        <mxCell id="jco1iWgY_Ft-8nNPsza7-81" value="Name" style="shape=partialRectangle;html=1;whiteSpace=wrap;connectable=0;strokeColor=inherit;overflow=hidden;fillColor=none;top=0;left=0;bottom=0;right=0;pointerEvents=1;" parent="jco1iWgY_Ft-8nNPsza7-79" vertex="1">
          <mxGeometry x="96" width="96" height="38" as="geometry">
            <mxRectangle width="96" height="38" as="alternateBounds" />
          </mxGeometry>
        </mxCell>
        <mxCell id="jco1iWgY_Ft-8nNPsza7-82" value="Publish" style="shape=table;startSize=30;container=1;collapsible=0;childLayout=tableLayout;" parent="1" vertex="1">
          <mxGeometry x="30" y="260" width="192" height="68.20999999999991" as="geometry" />
        </mxCell>
        <mxCell id="jco1iWgY_Ft-8nNPsza7-83" value="" style="shape=tableRow;horizontal=0;startSize=0;swimlaneHead=0;swimlaneBody=0;strokeColor=inherit;top=0;left=0;bottom=0;right=0;collapsible=0;dropTarget=0;fillColor=none;points=[[0,0.5],[1,0.5]];portConstraint=eastwest;" parent="jco1iWgY_Ft-8nNPsza7-82" vertex="1">
          <mxGeometry y="30" width="192" height="38" as="geometry" />
        </mxCell>
        <mxCell id="jco1iWgY_Ft-8nNPsza7-84" value="&lt;u&gt;Publisher_ID&lt;/u&gt;" style="shape=partialRectangle;html=1;whiteSpace=wrap;connectable=0;strokeColor=inherit;overflow=hidden;fillColor=none;top=0;left=0;bottom=0;right=0;pointerEvents=1;" parent="jco1iWgY_Ft-8nNPsza7-83" vertex="1">
          <mxGeometry width="96" height="38" as="geometry">
            <mxRectangle width="96" height="38" as="alternateBounds" />
          </mxGeometry>
        </mxCell>
        <mxCell id="jco1iWgY_Ft-8nNPsza7-85" value="&lt;u&gt;Book_ID&lt;/u&gt;" style="shape=partialRectangle;html=1;whiteSpace=wrap;connectable=0;strokeColor=inherit;overflow=hidden;fillColor=none;top=0;left=0;bottom=0;right=0;pointerEvents=1;" parent="jco1iWgY_Ft-8nNPsza7-83" vertex="1">
          <mxGeometry x="96" width="96" height="38" as="geometry">
            <mxRectangle width="96" height="38" as="alternateBounds" />
          </mxGeometry>
        </mxCell>
        <mxCell id="jco1iWgY_Ft-8nNPsza7-86" value="Belongs_to" style="shape=table;startSize=30;container=1;collapsible=0;childLayout=tableLayout;" parent="1" vertex="1">
          <mxGeometry x="320" y="130" width="192" height="68.20999999999991" as="geometry" />
        </mxCell>
        <mxCell id="jco1iWgY_Ft-8nNPsza7-87" value="" style="shape=tableRow;horizontal=0;startSize=0;swimlaneHead=0;swimlaneBody=0;strokeColor=inherit;top=0;left=0;bottom=0;right=0;collapsible=0;dropTarget=0;fillColor=none;points=[[0,0.5],[1,0.5]];portConstraint=eastwest;" parent="jco1iWgY_Ft-8nNPsza7-86" vertex="1">
          <mxGeometry y="30" width="192" height="38" as="geometry" />
        </mxCell>
        <mxCell id="jco1iWgY_Ft-8nNPsza7-88" value="&lt;u&gt;Genre_ID&lt;/u&gt;" style="shape=partialRectangle;html=1;whiteSpace=wrap;connectable=0;strokeColor=inherit;overflow=hidden;fillColor=none;top=0;left=0;bottom=0;right=0;pointerEvents=1;" parent="jco1iWgY_Ft-8nNPsza7-87" vertex="1">
          <mxGeometry width="96" height="38" as="geometry">
            <mxRectangle width="96" height="38" as="alternateBounds" />
          </mxGeometry>
        </mxCell>
        <mxCell id="jco1iWgY_Ft-8nNPsza7-89" value="Name" style="shape=partialRectangle;html=1;whiteSpace=wrap;connectable=0;strokeColor=inherit;overflow=hidden;fillColor=none;top=0;left=0;bottom=0;right=0;pointerEvents=1;" parent="jco1iWgY_Ft-8nNPsza7-87" vertex="1">
          <mxGeometry x="96" width="96" height="38" as="geometry">
            <mxRectangle width="96" height="38" as="alternateBounds" />
          </mxGeometry>
        </mxCell>
        <mxCell id="jco1iWgY_Ft-8nNPsza7-90" value="Belongs_to" style="shape=table;startSize=30;container=1;collapsible=0;childLayout=tableLayout;" parent="1" vertex="1">
          <mxGeometry x="320" y="260" width="192" height="68.20999999999991" as="geometry" />
        </mxCell>
        <mxCell id="jco1iWgY_Ft-8nNPsza7-91" value="" style="shape=tableRow;horizontal=0;startSize=0;swimlaneHead=0;swimlaneBody=0;strokeColor=inherit;top=0;left=0;bottom=0;right=0;collapsible=0;dropTarget=0;fillColor=none;points=[[0,0.5],[1,0.5]];portConstraint=eastwest;" parent="jco1iWgY_Ft-8nNPsza7-90" vertex="1">
          <mxGeometry y="30" width="192" height="38" as="geometry" />
        </mxCell>
        <mxCell id="jco1iWgY_Ft-8nNPsza7-92" value="&lt;u&gt;Genre_ID&lt;/u&gt;" style="shape=partialRectangle;html=1;whiteSpace=wrap;connectable=0;strokeColor=inherit;overflow=hidden;fillColor=none;top=0;left=0;bottom=0;right=0;pointerEvents=1;" parent="jco1iWgY_Ft-8nNPsza7-91" vertex="1">
          <mxGeometry width="96" height="38" as="geometry">
            <mxRectangle width="96" height="38" as="alternateBounds" />
          </mxGeometry>
        </mxCell>
        <mxCell id="jco1iWgY_Ft-8nNPsza7-93" value="&lt;u&gt;Book_ID&lt;/u&gt;" style="shape=partialRectangle;html=1;whiteSpace=wrap;connectable=0;strokeColor=inherit;overflow=hidden;fillColor=none;top=0;left=0;bottom=0;right=0;pointerEvents=1;" parent="jco1iWgY_Ft-8nNPsza7-91" vertex="1">
          <mxGeometry x="96" width="96" height="38" as="geometry">
            <mxRectangle width="96" height="38" as="alternateBounds" />
          </mxGeometry>
        </mxCell>
        <mxCell id="jco1iWgY_Ft-8nNPsza7-99" value="" style="curved=1;endArrow=classic;html=1;rounded=0;exitX=0;exitY=0.5;exitDx=0;exitDy=0;entryX=0;entryY=0.5;entryDx=0;entryDy=0;" parent="1" source="jco1iWgY_Ft-8nNPsza7-62" target="jco1iWgY_Ft-8nNPsza7-75" edge="1">
          <mxGeometry width="50" height="50" relative="1" as="geometry">
            <mxPoint x="-200" y="230" as="sourcePoint" />
            <mxPoint x="-150" y="180" as="targetPoint" />
            <Array as="points">
              <mxPoint x="-320" y="210" />
              <mxPoint x="-310" y="180" />
            </Array>
          </mxGeometry>
        </mxCell>
        <mxCell id="jco1iWgY_Ft-8nNPsza7-100" value="" style="curved=1;endArrow=classic;html=1;rounded=0;exitX=0;exitY=0.5;exitDx=0;exitDy=0;entryX=0;entryY=0.5;entryDx=0;entryDy=0;" parent="1" source="jco1iWgY_Ft-8nNPsza7-83" target="jco1iWgY_Ft-8nNPsza7-79" edge="1">
          <mxGeometry width="50" height="50" relative="1" as="geometry">
            <mxPoint x="12" y="310" as="sourcePoint" />
            <mxPoint x="12" y="180" as="targetPoint" />
            <Array as="points">
              <mxPoint x="-20" y="210" />
              <mxPoint x="-20" y="179" />
            </Array>
          </mxGeometry>
        </mxCell>
        <mxCell id="jco1iWgY_Ft-8nNPsza7-103" value="" style="curved=1;endArrow=classic;html=1;rounded=0;exitX=0;exitY=0.5;exitDx=0;exitDy=0;entryX=0;entryY=0.5;entryDx=0;entryDy=0;" parent="1" source="jco1iWgY_Ft-8nNPsza7-91" target="jco1iWgY_Ft-8nNPsza7-87" edge="1">
          <mxGeometry width="50" height="50" relative="1" as="geometry">
            <mxPoint x="310" y="310" as="sourcePoint" />
            <mxPoint x="310" y="180" as="targetPoint" />
            <Array as="points">
              <mxPoint x="260" y="220" />
              <mxPoint x="250" y="181" />
            </Array>
          </mxGeometry>
        </mxCell>
        <mxCell id="jco1iWgY_Ft-8nNPsza7-106" value="" style="curved=1;endArrow=classic;html=1;rounded=0;entryX=0;entryY=0.5;entryDx=0;entryDy=0;exitX=1;exitY=0.5;exitDx=0;exitDy=0;" parent="1" source="jco1iWgY_Ft-8nNPsza7-62" target="jco1iWgY_Ft-8nNPsza7-38" edge="1">
          <mxGeometry width="50" height="50" relative="1" as="geometry">
            <mxPoint x="-370" y="360" as="sourcePoint" />
            <mxPoint x="-270" y="420" as="targetPoint" />
            <Array as="points">
              <mxPoint x="-10" y="350" />
              <mxPoint x="-200" y="340" />
              <mxPoint x="-290" y="350" />
              <mxPoint x="-330" y="440" />
              <mxPoint x="-310" y="450" />
              <mxPoint x="-280" y="470" />
            </Array>
          </mxGeometry>
        </mxCell>
        <mxCell id="jco1iWgY_Ft-8nNPsza7-107" value="" style="curved=1;endArrow=classic;html=1;rounded=0;exitX=1;exitY=0.5;exitDx=0;exitDy=0;entryX=0;entryY=0.5;entryDx=0;entryDy=0;" parent="1" source="jco1iWgY_Ft-8nNPsza7-83" target="jco1iWgY_Ft-8nNPsza7-38" edge="1">
          <mxGeometry width="50" height="50" relative="1" as="geometry">
            <mxPoint x="220" y="370" as="sourcePoint" />
            <mxPoint x="-280" y="410" as="targetPoint" />
            <Array as="points">
              <mxPoint x="250" y="340" />
              <mxPoint x="110" y="380" />
              <mxPoint x="-60" y="370" />
              <mxPoint x="-120" y="360" />
              <mxPoint x="-290" y="380" />
              <mxPoint x="-290" y="420" />
            </Array>
          </mxGeometry>
        </mxCell>
        <mxCell id="jco1iWgY_Ft-8nNPsza7-108" value="" style="curved=1;endArrow=classic;html=1;rounded=0;exitX=1;exitY=0.5;exitDx=0;exitDy=0;entryX=0;entryY=0.5;entryDx=0;entryDy=0;" parent="1" source="jco1iWgY_Ft-8nNPsza7-91" target="jco1iWgY_Ft-8nNPsza7-38" edge="1">
          <mxGeometry width="50" height="50" relative="1" as="geometry">
            <mxPoint x="350" y="360" as="sourcePoint" />
            <mxPoint x="30" y="390" as="targetPoint" />
            <Array as="points">
              <mxPoint x="570" y="350" />
              <mxPoint x="160" y="390" />
              <mxPoint x="-300" y="360" />
            </Array>
          </mxGeometry>
        </mxCell>
        <mxCell id="xIULHX0BywN_1-hN7kxc-1" value="REVIEWS" style="shape=table;startSize=30;container=1;collapsible=0;childLayout=tableLayout;" parent="1" vertex="1">
          <mxGeometry x="-250" y="530" width="576" height="70.20999999999991" as="geometry" />
        </mxCell>
        <mxCell id="xIULHX0BywN_1-hN7kxc-2" value="" style="shape=tableRow;horizontal=0;startSize=0;swimlaneHead=0;swimlaneBody=0;strokeColor=inherit;top=0;left=0;bottom=0;right=0;collapsible=0;dropTarget=0;fillColor=none;points=[[0,0.5],[1,0.5]];portConstraint=eastwest;" parent="xIULHX0BywN_1-hN7kxc-1" vertex="1">
          <mxGeometry y="30" width="576" height="40" as="geometry" />
        </mxCell>
        <mxCell id="xIULHX0BywN_1-hN7kxc-3" value="&lt;u&gt;Create_date&lt;/u&gt;" style="shape=partialRectangle;html=1;whiteSpace=wrap;connectable=0;strokeColor=inherit;overflow=hidden;fillColor=none;top=0;left=0;bottom=0;right=0;pointerEvents=1;" parent="xIULHX0BywN_1-hN7kxc-2" vertex="1">
          <mxGeometry width="96" height="40" as="geometry">
            <mxRectangle width="96" height="40" as="alternateBounds" />
          </mxGeometry>
        </mxCell>
        <mxCell id="xIULHX0BywN_1-hN7kxc-4" value="&lt;u&gt;Account_ID&lt;/u&gt;" style="shape=partialRectangle;html=1;whiteSpace=wrap;connectable=0;strokeColor=inherit;overflow=hidden;fillColor=none;top=0;left=0;bottom=0;right=0;pointerEvents=1;" parent="xIULHX0BywN_1-hN7kxc-2" vertex="1">
          <mxGeometry x="96" width="96" height="40" as="geometry">
            <mxRectangle width="96" height="40" as="alternateBounds" />
          </mxGeometry>
        </mxCell>
        <mxCell id="xIULHX0BywN_1-hN7kxc-5" value="Book_ID" style="shape=partialRectangle;html=1;whiteSpace=wrap;connectable=0;strokeColor=inherit;overflow=hidden;fillColor=none;top=0;left=0;bottom=0;right=0;pointerEvents=1;" parent="xIULHX0BywN_1-hN7kxc-2" vertex="1">
          <mxGeometry x="192" width="96" height="40" as="geometry">
            <mxRectangle width="96" height="40" as="alternateBounds" />
          </mxGeometry>
        </mxCell>
        <mxCell id="xIULHX0BywN_1-hN7kxc-6" value="Content" style="shape=partialRectangle;html=1;whiteSpace=wrap;connectable=0;strokeColor=inherit;overflow=hidden;fillColor=none;top=0;left=0;bottom=0;right=0;pointerEvents=1;" parent="xIULHX0BywN_1-hN7kxc-2" vertex="1">
          <mxGeometry x="288" width="96" height="40" as="geometry">
            <mxRectangle width="96" height="40" as="alternateBounds" />
          </mxGeometry>
        </mxCell>
        <mxCell id="xIULHX0BywN_1-hN7kxc-11" value="Ratings" style="shape=partialRectangle;html=1;whiteSpace=wrap;connectable=0;strokeColor=inherit;overflow=hidden;fillColor=none;top=0;left=0;bottom=0;right=0;pointerEvents=1;" parent="xIULHX0BywN_1-hN7kxc-2" vertex="1">
          <mxGeometry x="384" width="96" height="40" as="geometry">
            <mxRectangle width="96" height="40" as="alternateBounds" />
          </mxGeometry>
        </mxCell>
        <mxCell id="xIULHX0BywN_1-hN7kxc-13" value="Image" style="shape=partialRectangle;html=1;whiteSpace=wrap;connectable=0;strokeColor=inherit;overflow=hidden;fillColor=none;top=0;left=0;bottom=0;right=0;pointerEvents=1;" parent="xIULHX0BywN_1-hN7kxc-2" vertex="1">
          <mxGeometry x="480" width="96" height="40" as="geometry">
            <mxRectangle width="96" height="40" as="alternateBounds" />
          </mxGeometry>
        </mxCell>
        <mxCell id="M3pS9OpvnPEywSMd37_W-1" value="ACCOUNT" style="shape=table;startSize=30;container=1;collapsible=0;childLayout=tableLayout;" parent="1" vertex="1">
          <mxGeometry x="-250" y="670" width="960" height="68.20999999999991" as="geometry" />
        </mxCell>
        <mxCell id="M3pS9OpvnPEywSMd37_W-2" value="" style="shape=tableRow;horizontal=0;startSize=0;swimlaneHead=0;swimlaneBody=0;strokeColor=inherit;top=0;left=0;bottom=0;right=0;collapsible=0;dropTarget=0;fillColor=none;points=[[0,0.5],[1,0.5]];portConstraint=eastwest;" parent="M3pS9OpvnPEywSMd37_W-1" vertex="1">
          <mxGeometry y="30" width="960" height="38" as="geometry" />
        </mxCell>
        <mxCell id="M3pS9OpvnPEywSMd37_W-3" value="&lt;u&gt;Account_ID&lt;/u&gt;" style="shape=partialRectangle;html=1;whiteSpace=wrap;connectable=0;strokeColor=inherit;overflow=hidden;fillColor=none;top=0;left=0;bottom=0;right=0;pointerEvents=1;" parent="M3pS9OpvnPEywSMd37_W-2" vertex="1">
          <mxGeometry width="96" height="38" as="geometry">
            <mxRectangle width="96" height="38" as="alternateBounds" />
          </mxGeometry>
        </mxCell>
        <mxCell id="M3pS9OpvnPEywSMd37_W-4" value="FName" style="shape=partialRectangle;html=1;whiteSpace=wrap;connectable=0;strokeColor=inherit;overflow=hidden;fillColor=none;top=0;left=0;bottom=0;right=0;pointerEvents=1;" parent="M3pS9OpvnPEywSMd37_W-2" vertex="1">
          <mxGeometry x="96" width="96" height="38" as="geometry">
            <mxRectangle width="96" height="38" as="alternateBounds" />
          </mxGeometry>
        </mxCell>
        <mxCell id="M3pS9OpvnPEywSMd37_W-5" value="LName" style="shape=partialRectangle;html=1;whiteSpace=wrap;connectable=0;strokeColor=inherit;overflow=hidden;fillColor=none;top=0;left=0;bottom=0;right=0;pointerEvents=1;" parent="M3pS9OpvnPEywSMd37_W-2" vertex="1">
          <mxGeometry x="192" width="96" height="38" as="geometry">
            <mxRectangle width="96" height="38" as="alternateBounds" />
          </mxGeometry>
        </mxCell>
        <mxCell id="M3pS9OpvnPEywSMd37_W-6" value="Email" style="shape=partialRectangle;html=1;whiteSpace=wrap;connectable=0;strokeColor=inherit;overflow=hidden;fillColor=none;top=0;left=0;bottom=0;right=0;pointerEvents=1;" parent="M3pS9OpvnPEywSMd37_W-2" vertex="1">
          <mxGeometry x="288" width="96" height="38" as="geometry">
            <mxRectangle width="96" height="38" as="alternateBounds" />
          </mxGeometry>
        </mxCell>
        <mxCell id="M3pS9OpvnPEywSMd37_W-7" value="TelephonNum" style="shape=partialRectangle;html=1;whiteSpace=wrap;connectable=0;strokeColor=inherit;overflow=hidden;fillColor=none;top=0;left=0;bottom=0;right=0;pointerEvents=1;" parent="M3pS9OpvnPEywSMd37_W-2" vertex="1">
          <mxGeometry x="384" width="96" height="38" as="geometry">
            <mxRectangle width="96" height="38" as="alternateBounds" />
          </mxGeometry>
        </mxCell>
        <mxCell id="M3pS9OpvnPEywSMd37_W-8" value="Password" style="shape=partialRectangle;html=1;whiteSpace=wrap;connectable=0;strokeColor=inherit;overflow=hidden;fillColor=none;top=0;left=0;bottom=0;right=0;pointerEvents=1;" parent="M3pS9OpvnPEywSMd37_W-2" vertex="1">
          <mxGeometry x="480" width="96" height="38" as="geometry">
            <mxRectangle width="96" height="38" as="alternateBounds" />
          </mxGeometry>
        </mxCell>
        <mxCell id="M3pS9OpvnPEywSMd37_W-10" value="Birthday" style="shape=partialRectangle;html=1;whiteSpace=wrap;connectable=0;strokeColor=inherit;overflow=hidden;fillColor=none;top=0;left=0;bottom=0;right=0;pointerEvents=1;" parent="M3pS9OpvnPEywSMd37_W-2" vertex="1">
          <mxGeometry x="576" width="96" height="38" as="geometry">
            <mxRectangle width="96" height="38" as="alternateBounds" />
          </mxGeometry>
        </mxCell>
        <mxCell id="M3pS9OpvnPEywSMd37_W-11" value="Address" style="shape=partialRectangle;html=1;whiteSpace=wrap;connectable=0;strokeColor=inherit;overflow=hidden;fillColor=none;top=0;left=0;bottom=0;right=0;pointerEvents=1;" parent="M3pS9OpvnPEywSMd37_W-2" vertex="1">
          <mxGeometry x="672" width="96" height="38" as="geometry">
            <mxRectangle width="96" height="38" as="alternateBounds" />
          </mxGeometry>
        </mxCell>
        <mxCell id="M3pS9OpvnPEywSMd37_W-12" value="Role_tag" style="shape=partialRectangle;html=1;whiteSpace=wrap;connectable=0;strokeColor=inherit;overflow=hidden;fillColor=none;top=0;left=0;bottom=0;right=0;pointerEvents=1;" parent="M3pS9OpvnPEywSMd37_W-2" vertex="1">
          <mxGeometry x="768" width="96" height="38" as="geometry">
            <mxRectangle width="96" height="38" as="alternateBounds" />
          </mxGeometry>
        </mxCell>
        <mxCell id="M3pS9OpvnPEywSMd37_W-13" value="Delete" style="shape=partialRectangle;html=1;whiteSpace=wrap;connectable=0;strokeColor=inherit;overflow=hidden;fillColor=none;top=0;left=0;bottom=0;right=0;pointerEvents=1;" parent="M3pS9OpvnPEywSMd37_W-2" vertex="1">
          <mxGeometry x="864" width="96" height="38" as="geometry">
            <mxRectangle width="96" height="38" as="alternateBounds" />
          </mxGeometry>
        </mxCell>
        <mxCell id="M3pS9OpvnPEywSMd37_W-15" value="STAFF" style="shape=table;startSize=30;container=1;collapsible=0;childLayout=tableLayout;" parent="1" vertex="1">
          <mxGeometry x="-250" y="800" width="192" height="68.20999999999991" as="geometry" />
        </mxCell>
        <mxCell id="M3pS9OpvnPEywSMd37_W-16" value="" style="shape=tableRow;horizontal=0;startSize=0;swimlaneHead=0;swimlaneBody=0;strokeColor=inherit;top=0;left=0;bottom=0;right=0;collapsible=0;dropTarget=0;fillColor=none;points=[[0,0.5],[1,0.5]];portConstraint=eastwest;" parent="M3pS9OpvnPEywSMd37_W-15" vertex="1">
          <mxGeometry y="30" width="192" height="38" as="geometry" />
        </mxCell>
        <mxCell id="M3pS9OpvnPEywSMd37_W-17" value="&lt;u&gt;Account_ID&lt;/u&gt;" style="shape=partialRectangle;html=1;whiteSpace=wrap;connectable=0;strokeColor=inherit;overflow=hidden;fillColor=none;top=0;left=0;bottom=0;right=0;pointerEvents=1;" parent="M3pS9OpvnPEywSMd37_W-16" vertex="1">
          <mxGeometry width="96" height="38" as="geometry">
            <mxRectangle width="96" height="38" as="alternateBounds" />
          </mxGeometry>
        </mxCell>
        <mxCell id="M3pS9OpvnPEywSMd37_W-18" value="Salary" style="shape=partialRectangle;html=1;whiteSpace=wrap;connectable=0;strokeColor=inherit;overflow=hidden;fillColor=none;top=0;left=0;bottom=0;right=0;pointerEvents=1;" parent="M3pS9OpvnPEywSMd37_W-16" vertex="1">
          <mxGeometry x="96" width="96" height="38" as="geometry">
            <mxRectangle width="96" height="38" as="alternateBounds" />
          </mxGeometry>
        </mxCell>
        <mxCell id="M3pS9OpvnPEywSMd37_W-28" value="CUSTOMER" style="shape=table;startSize=30;container=1;collapsible=0;childLayout=tableLayout;" parent="1" vertex="1">
          <mxGeometry y="800" width="288" height="68.20999999999991" as="geometry" />
        </mxCell>
        <mxCell id="M3pS9OpvnPEywSMd37_W-29" value="" style="shape=tableRow;horizontal=0;startSize=0;swimlaneHead=0;swimlaneBody=0;strokeColor=inherit;top=0;left=0;bottom=0;right=0;collapsible=0;dropTarget=0;fillColor=none;points=[[0,0.5],[1,0.5]];portConstraint=eastwest;" parent="M3pS9OpvnPEywSMd37_W-28" vertex="1">
          <mxGeometry y="30" width="288" height="38" as="geometry" />
        </mxCell>
        <mxCell id="M3pS9OpvnPEywSMd37_W-30" value="&lt;u&gt;Account_ID&lt;/u&gt;" style="shape=partialRectangle;html=1;whiteSpace=wrap;connectable=0;strokeColor=inherit;overflow=hidden;fillColor=none;top=0;left=0;bottom=0;right=0;pointerEvents=1;" parent="M3pS9OpvnPEywSMd37_W-29" vertex="1">
          <mxGeometry width="96" height="38" as="geometry">
            <mxRectangle width="96" height="38" as="alternateBounds" />
          </mxGeometry>
        </mxCell>
        <mxCell id="M3pS9OpvnPEywSMd37_W-31" value="Bank_ID" style="shape=partialRectangle;html=1;whiteSpace=wrap;connectable=0;strokeColor=inherit;overflow=hidden;fillColor=none;top=0;left=0;bottom=0;right=0;pointerEvents=1;" parent="M3pS9OpvnPEywSMd37_W-29" vertex="1">
          <mxGeometry x="96" width="96" height="38" as="geometry">
            <mxRectangle width="96" height="38" as="alternateBounds" />
          </mxGeometry>
        </mxCell>
        <mxCell id="M3pS9OpvnPEywSMd37_W-32" value="Bank_name" style="shape=partialRectangle;html=1;whiteSpace=wrap;connectable=0;strokeColor=inherit;overflow=hidden;fillColor=none;top=0;left=0;bottom=0;right=0;pointerEvents=1;" parent="M3pS9OpvnPEywSMd37_W-29" vertex="1">
          <mxGeometry x="192" width="96" height="38" as="geometry">
            <mxRectangle width="96" height="38" as="alternateBounds" />
          </mxGeometry>
        </mxCell>
        <mxCell id="M3pS9OpvnPEywSMd37_W-33" value="" style="curved=1;endArrow=classic;html=1;rounded=0;entryX=0;entryY=0.5;entryDx=0;entryDy=0;" parent="1" target="M3pS9OpvnPEywSMd37_W-2" edge="1">
          <mxGeometry width="50" height="50" relative="1" as="geometry">
            <mxPoint x="-110" y="600" as="sourcePoint" />
            <mxPoint x="50" y="640" as="targetPoint" />
            <Array as="points">
              <mxPoint x="-180" y="630" />
              <mxPoint x="-310" y="660" />
            </Array>
          </mxGeometry>
        </mxCell>
        <mxCell id="M3pS9OpvnPEywSMd37_W-35" value="" style="curved=1;endArrow=classic;html=1;rounded=0;entryX=0.06;entryY=1.024;entryDx=0;entryDy=0;entryPerimeter=0;exitX=0.399;exitY=0;exitDx=0;exitDy=0;exitPerimeter=0;" parent="1" source="xIULHX0BywN_1-hN7kxc-2" target="jco1iWgY_Ft-8nNPsza7-38" edge="1">
          <mxGeometry width="50" height="50" relative="1" as="geometry">
            <mxPoint x="-140" y="590" as="sourcePoint" />
            <mxPoint x="-90" y="540" as="targetPoint" />
            <Array as="points">
              <mxPoint x="-40" y="500" />
              <mxPoint x="-120" y="480" />
            </Array>
          </mxGeometry>
        </mxCell>
        <mxCell id="M3pS9OpvnPEywSMd37_W-43" value="" style="curved=1;endArrow=classic;html=1;rounded=0;exitX=0;exitY=0.5;exitDx=0;exitDy=0;" parent="1" source="M3pS9OpvnPEywSMd37_W-16" edge="1">
          <mxGeometry width="50" height="50" relative="1" as="geometry">
            <mxPoint x="-310" y="830" as="sourcePoint" />
            <mxPoint x="-210" y="740" as="targetPoint" />
            <Array as="points">
              <mxPoint x="-260" y="830" />
              <mxPoint x="-270" y="810" />
              <mxPoint x="-290" y="780" />
            </Array>
          </mxGeometry>
        </mxCell>
        <mxCell id="M3pS9OpvnPEywSMd37_W-44" value="" style="curved=1;endArrow=classic;html=1;rounded=0;exitX=0;exitY=0.5;exitDx=0;exitDy=0;" parent="1" source="M3pS9OpvnPEywSMd37_W-29" edge="1">
          <mxGeometry width="50" height="50" relative="1" as="geometry">
            <mxPoint x="-50" y="820" as="sourcePoint" />
            <mxPoint x="-180" y="740" as="targetPoint" />
            <Array as="points">
              <mxPoint y="820" />
              <mxPoint x="-70" y="790" />
            </Array>
          </mxGeometry>
        </mxCell>
        <mxCell id="M3pS9OpvnPEywSMd37_W-45" value="ORDER" style="shape=table;startSize=30;container=1;collapsible=0;childLayout=tableLayout;" parent="1" vertex="1">
          <mxGeometry x="-250" y="1010" width="768" height="68.20999999999991" as="geometry" />
        </mxCell>
        <mxCell id="M3pS9OpvnPEywSMd37_W-46" value="" style="shape=tableRow;horizontal=0;startSize=0;swimlaneHead=0;swimlaneBody=0;strokeColor=inherit;top=0;left=0;bottom=0;right=0;collapsible=0;dropTarget=0;fillColor=none;points=[[0,0.5],[1,0.5]];portConstraint=eastwest;" parent="M3pS9OpvnPEywSMd37_W-45" vertex="1">
          <mxGeometry y="30" width="768" height="38" as="geometry" />
        </mxCell>
        <mxCell id="M3pS9OpvnPEywSMd37_W-47" value="&lt;u&gt;Order_ID&lt;/u&gt;" style="shape=partialRectangle;html=1;whiteSpace=wrap;connectable=0;strokeColor=inherit;overflow=hidden;fillColor=none;top=0;left=0;bottom=0;right=0;pointerEvents=1;" parent="M3pS9OpvnPEywSMd37_W-46" vertex="1">
          <mxGeometry width="96" height="38" as="geometry">
            <mxRectangle width="96" height="38" as="alternateBounds" />
          </mxGeometry>
        </mxCell>
        <mxCell id="M3pS9OpvnPEywSMd37_W-48" value="Address" style="shape=partialRectangle;html=1;whiteSpace=wrap;connectable=0;strokeColor=inherit;overflow=hidden;fillColor=none;top=0;left=0;bottom=0;right=0;pointerEvents=1;" parent="M3pS9OpvnPEywSMd37_W-46" vertex="1">
          <mxGeometry x="96" width="96" height="38" as="geometry">
            <mxRectangle width="96" height="38" as="alternateBounds" />
          </mxGeometry>
        </mxCell>
        <mxCell id="M3pS9OpvnPEywSMd37_W-49" value="Create_date" style="shape=partialRectangle;html=1;whiteSpace=wrap;connectable=0;strokeColor=inherit;overflow=hidden;fillColor=none;top=0;left=0;bottom=0;right=0;pointerEvents=1;" parent="M3pS9OpvnPEywSMd37_W-46" vertex="1">
          <mxGeometry x="192" width="96" height="38" as="geometry">
            <mxRectangle width="96" height="38" as="alternateBounds" />
          </mxGeometry>
        </mxCell>
        <mxCell id="M3pS9OpvnPEywSMd37_W-50" value="Status" style="shape=partialRectangle;html=1;whiteSpace=wrap;connectable=0;strokeColor=inherit;overflow=hidden;fillColor=none;top=0;left=0;bottom=0;right=0;pointerEvents=1;" parent="M3pS9OpvnPEywSMd37_W-46" vertex="1">
          <mxGeometry x="288" width="96" height="38" as="geometry">
            <mxRectangle width="96" height="38" as="alternateBounds" />
          </mxGeometry>
        </mxCell>
        <mxCell id="M3pS9OpvnPEywSMd37_W-51" value="Total_price" style="shape=partialRectangle;html=1;whiteSpace=wrap;connectable=0;strokeColor=inherit;overflow=hidden;fillColor=none;top=0;left=0;bottom=0;right=0;pointerEvents=1;" parent="M3pS9OpvnPEywSMd37_W-46" vertex="1">
          <mxGeometry x="384" width="96" height="38" as="geometry">
            <mxRectangle width="96" height="38" as="alternateBounds" />
          </mxGeometry>
        </mxCell>
        <mxCell id="M3pS9OpvnPEywSMd37_W-52" value="Note" style="shape=partialRectangle;html=1;whiteSpace=wrap;connectable=0;strokeColor=inherit;overflow=hidden;fillColor=none;top=0;left=0;bottom=0;right=0;pointerEvents=1;" parent="M3pS9OpvnPEywSMd37_W-46" vertex="1">
          <mxGeometry x="480" width="96" height="38" as="geometry">
            <mxRectangle width="96" height="38" as="alternateBounds" />
          </mxGeometry>
        </mxCell>
        <mxCell id="M3pS9OpvnPEywSMd37_W-57" value="Shipping_ID" style="shape=partialRectangle;html=1;whiteSpace=wrap;connectable=0;strokeColor=inherit;overflow=hidden;fillColor=none;top=0;left=0;bottom=0;right=0;pointerEvents=1;" parent="M3pS9OpvnPEywSMd37_W-46" vertex="1">
          <mxGeometry x="576" width="96" height="38" as="geometry">
            <mxRectangle width="96" height="38" as="alternateBounds" />
          </mxGeometry>
        </mxCell>
        <mxCell id="M3pS9OpvnPEywSMd37_W-58" value="Account_ID" style="shape=partialRectangle;html=1;whiteSpace=wrap;connectable=0;strokeColor=inherit;overflow=hidden;fillColor=none;top=0;left=0;bottom=0;right=0;pointerEvents=1;" parent="M3pS9OpvnPEywSMd37_W-46" vertex="1">
          <mxGeometry x="672" width="96" height="38" as="geometry">
            <mxRectangle width="96" height="38" as="alternateBounds" />
          </mxGeometry>
        </mxCell>
        <mxCell id="M3pS9OpvnPEywSMd37_W-59" value="ORDER_DETAIL" style="shape=table;startSize=30;container=1;collapsible=0;childLayout=tableLayout;" parent="1" vertex="1">
          <mxGeometry x="-250" y="910" width="576" height="60.20999999999991" as="geometry" />
        </mxCell>
        <mxCell id="M3pS9OpvnPEywSMd37_W-60" value="" style="shape=tableRow;horizontal=0;startSize=0;swimlaneHead=0;swimlaneBody=0;strokeColor=inherit;top=0;left=0;bottom=0;right=0;collapsible=0;dropTarget=0;fillColor=none;points=[[0,0.5],[1,0.5]];portConstraint=eastwest;" parent="M3pS9OpvnPEywSMd37_W-59" vertex="1">
          <mxGeometry y="30" width="576" height="30" as="geometry" />
        </mxCell>
        <mxCell id="M3pS9OpvnPEywSMd37_W-61" value="&lt;u&gt;Detail_ID&lt;/u&gt;" style="shape=partialRectangle;html=1;whiteSpace=wrap;connectable=0;strokeColor=inherit;overflow=hidden;fillColor=none;top=0;left=0;bottom=0;right=0;pointerEvents=1;" parent="M3pS9OpvnPEywSMd37_W-60" vertex="1">
          <mxGeometry width="96" height="30" as="geometry">
            <mxRectangle width="96" height="30" as="alternateBounds" />
          </mxGeometry>
        </mxCell>
        <mxCell id="M3pS9OpvnPEywSMd37_W-62" value="Price" style="shape=partialRectangle;html=1;whiteSpace=wrap;connectable=0;strokeColor=inherit;overflow=hidden;fillColor=none;top=0;left=0;bottom=0;right=0;pointerEvents=1;" parent="M3pS9OpvnPEywSMd37_W-60" vertex="1">
          <mxGeometry x="96" width="96" height="30" as="geometry">
            <mxRectangle width="96" height="30" as="alternateBounds" />
          </mxGeometry>
        </mxCell>
        <mxCell id="M3pS9OpvnPEywSMd37_W-69" value="Quantity" style="shape=partialRectangle;html=1;whiteSpace=wrap;connectable=0;strokeColor=inherit;overflow=hidden;fillColor=none;top=0;left=0;bottom=0;right=0;pointerEvents=1;" parent="M3pS9OpvnPEywSMd37_W-60" vertex="1">
          <mxGeometry x="192" width="96" height="30" as="geometry">
            <mxRectangle width="96" height="30" as="alternateBounds" />
          </mxGeometry>
        </mxCell>
        <mxCell id="M3pS9OpvnPEywSMd37_W-70" value="Total_cost" style="shape=partialRectangle;html=1;whiteSpace=wrap;connectable=0;strokeColor=inherit;overflow=hidden;fillColor=none;top=0;left=0;bottom=0;right=0;pointerEvents=1;" parent="M3pS9OpvnPEywSMd37_W-60" vertex="1">
          <mxGeometry x="288" width="96" height="30" as="geometry">
            <mxRectangle width="96" height="30" as="alternateBounds" />
          </mxGeometry>
        </mxCell>
        <mxCell id="M3pS9OpvnPEywSMd37_W-71" value="Order_ID" style="shape=partialRectangle;html=1;whiteSpace=wrap;connectable=0;strokeColor=inherit;overflow=hidden;fillColor=none;top=0;left=0;bottom=0;right=0;pointerEvents=1;" parent="M3pS9OpvnPEywSMd37_W-60" vertex="1">
          <mxGeometry x="384" width="96" height="30" as="geometry">
            <mxRectangle width="96" height="30" as="alternateBounds" />
          </mxGeometry>
        </mxCell>
        <mxCell id="M3pS9OpvnPEywSMd37_W-72" value="Book_ID" style="shape=partialRectangle;html=1;whiteSpace=wrap;connectable=0;strokeColor=inherit;overflow=hidden;fillColor=none;top=0;left=0;bottom=0;right=0;pointerEvents=1;" parent="M3pS9OpvnPEywSMd37_W-60" vertex="1">
          <mxGeometry x="480" width="96" height="30" as="geometry">
            <mxRectangle width="96" height="30" as="alternateBounds" />
          </mxGeometry>
        </mxCell>
        <mxCell id="M3pS9OpvnPEywSMd37_W-73" value="SHIPPING_METHOD" style="shape=table;startSize=30;container=1;collapsible=0;childLayout=tableLayout;" parent="1" vertex="1">
          <mxGeometry x="-250" y="1130" width="288" height="68.20999999999991" as="geometry" />
        </mxCell>
        <mxCell id="M3pS9OpvnPEywSMd37_W-74" value="" style="shape=tableRow;horizontal=0;startSize=0;swimlaneHead=0;swimlaneBody=0;strokeColor=inherit;top=0;left=0;bottom=0;right=0;collapsible=0;dropTarget=0;fillColor=none;points=[[0,0.5],[1,0.5]];portConstraint=eastwest;" parent="M3pS9OpvnPEywSMd37_W-73" vertex="1">
          <mxGeometry y="30" width="288" height="38" as="geometry" />
        </mxCell>
        <mxCell id="M3pS9OpvnPEywSMd37_W-75" value="&lt;u&gt;Method_ID&lt;/u&gt;" style="shape=partialRectangle;html=1;whiteSpace=wrap;connectable=0;strokeColor=inherit;overflow=hidden;fillColor=none;top=0;left=0;bottom=0;right=0;pointerEvents=1;" parent="M3pS9OpvnPEywSMd37_W-74" vertex="1">
          <mxGeometry width="96" height="38" as="geometry">
            <mxRectangle width="96" height="38" as="alternateBounds" />
          </mxGeometry>
        </mxCell>
        <mxCell id="M3pS9OpvnPEywSMd37_W-76" value="Name" style="shape=partialRectangle;html=1;whiteSpace=wrap;connectable=0;strokeColor=inherit;overflow=hidden;fillColor=none;top=0;left=0;bottom=0;right=0;pointerEvents=1;" parent="M3pS9OpvnPEywSMd37_W-74" vertex="1">
          <mxGeometry x="96" width="96" height="38" as="geometry">
            <mxRectangle width="96" height="38" as="alternateBounds" />
          </mxGeometry>
        </mxCell>
        <mxCell id="M3pS9OpvnPEywSMd37_W-77" value="Fee" style="shape=partialRectangle;html=1;whiteSpace=wrap;connectable=0;strokeColor=inherit;overflow=hidden;fillColor=none;top=0;left=0;bottom=0;right=0;pointerEvents=1;" parent="M3pS9OpvnPEywSMd37_W-74" vertex="1">
          <mxGeometry x="192" width="96" height="38" as="geometry">
            <mxRectangle width="96" height="38" as="alternateBounds" />
          </mxGeometry>
        </mxCell>
        <mxCell id="M3pS9OpvnPEywSMd37_W-83" value="" style="curved=1;endArrow=classic;html=1;rounded=0;entryX=0.068;entryY=-0.127;entryDx=0;entryDy=0;entryPerimeter=0;exitX=0.747;exitY=1.067;exitDx=0;exitDy=0;exitPerimeter=0;" parent="1" source="M3pS9OpvnPEywSMd37_W-60" target="M3pS9OpvnPEywSMd37_W-46" edge="1">
          <mxGeometry width="50" height="50" relative="1" as="geometry">
            <mxPoint x="140" y="1110" as="sourcePoint" />
            <mxPoint x="10" y="1090" as="targetPoint" />
            <Array as="points">
              <mxPoint x="-120" y="980" />
              <mxPoint x="-190" y="990" />
            </Array>
          </mxGeometry>
        </mxCell>
        <mxCell id="M3pS9OpvnPEywSMd37_W-84" value="" style="curved=1;endArrow=classic;html=1;rounded=0;entryX=0;entryY=0.5;entryDx=0;entryDy=0;exitX=0.814;exitY=1.105;exitDx=0;exitDy=0;exitPerimeter=0;" parent="1" source="M3pS9OpvnPEywSMd37_W-46" target="M3pS9OpvnPEywSMd37_W-74" edge="1">
          <mxGeometry width="50" height="50" relative="1" as="geometry">
            <mxPoint x="200" y="1140" as="sourcePoint" />
            <mxPoint x="60" y="1100" as="targetPoint" />
            <Array as="points">
              <mxPoint x="60" y="1150" />
              <mxPoint x="-300" y="1070" />
            </Array>
          </mxGeometry>
        </mxCell>
        <mxCell id="M3pS9OpvnPEywSMd37_W-85" value="" style="curved=1;endArrow=classic;html=1;rounded=0;entryX=0.064;entryY=1.036;entryDx=0;entryDy=0;entryPerimeter=0;exitX=1;exitY=0.5;exitDx=0;exitDy=0;" parent="1" source="M3pS9OpvnPEywSMd37_W-46" target="M3pS9OpvnPEywSMd37_W-2" edge="1">
          <mxGeometry width="50" height="50" relative="1" as="geometry">
            <mxPoint x="400" y="960" as="sourcePoint" />
            <mxPoint x="450" y="910" as="targetPoint" />
            <Array as="points">
              <mxPoint x="560" y="950" />
              <mxPoint x="518" y="840" />
              <mxPoint x="370" y="790" />
              <mxPoint x="80" y="790" />
              <mxPoint x="-210" y="780" />
            </Array>
          </mxGeometry>
        </mxCell>
        <mxCell id="M3pS9OpvnPEywSMd37_W-86" value="" style="curved=1;endArrow=classic;html=1;rounded=0;exitX=1;exitY=0.5;exitDx=0;exitDy=0;entryX=0.052;entryY=1.178;entryDx=0;entryDy=0;entryPerimeter=0;" parent="1" source="M3pS9OpvnPEywSMd37_W-60" target="jco1iWgY_Ft-8nNPsza7-38" edge="1">
          <mxGeometry width="50" height="50" relative="1" as="geometry">
            <mxPoint x="370" y="940" as="sourcePoint" />
            <mxPoint x="-200" y="490" as="targetPoint" />
            <Array as="points">
              <mxPoint x="520" y="970" />
              <mxPoint x="800" y="820" />
              <mxPoint x="810" y="550" />
              <mxPoint x="340" y="490" />
              <mxPoint x="70" y="510" />
              <mxPoint x="-160" y="510" />
            </Array>
          </mxGeometry>
        </mxCell>
        <mxCell id="M3pS9OpvnPEywSMd37_W-87" value="&lt;font style=&quot;font-size: 36px;&quot;&gt;RELATIONAL-MAPPING&lt;/font&gt;" style="swimlane;whiteSpace=wrap;html=1;startSize=50;" parent="1" vertex="1">
          <mxGeometry x="-370" y="40" width="1210" height="1230" as="geometry" />
        </mxCell>
      </root>
    </mxGraphModel>
  </diagram>
</mxfile>
